<svg width="194" height="200" viewBox="0 0 194 200" fill="none" xmlns="http://www.w3.org/2000/svg">
<path d="M92.4103 0.0559874C110.203 1.49426 113.784 28.0667 128.186 38.5906C140.496 47.585 158.452 45.8741 169.494 56.3796C182.006 68.2831 195.555 83.8985 193.855 101.066C192.133 118.447 173.978 129.036 161.123 140.889C151.132 150.101 137.951 153.968 127.309 162.422C114.224 172.817 107.407 191.186 91.4625 196.226C74.552 201.572 52.1487 202.595 39.505 190.179C26.1492 177.064 36.7204 153.313 29.9912 135.862C24.6615 122.04 8.7951 114.417 4.79224 100.156C0.243351 83.9497 -3.72925 64.2587 6.04287 50.5419C15.9259 36.6693 38.266 41.1146 52.9835 32.5115C67.9386 23.7696 75.1349 -1.34047 92.4103 0.0559874Z" fill="#DBAE6C"/>
</svg>
