<svg width="226" height="226" viewBox="0 0 226 226" fill="none" xmlns="http://www.w3.org/2000/svg">
<path d="M141.25 63.5625V14.125C141.25 6.32403 147.574 0 155.375 0C163.176 0 169.5 6.32403 169.5 14.125V63.5625H141.25ZM190.688 70.625H35.3125C31.4118 70.625 28.25 73.7868 28.25 77.6875V91.8125C28.25 95.7132 31.4118 98.875 35.3125 98.875H42.375V113C42.375 147.167 66.6387 175.667 98.875 182.211V226H127.125V182.211C159.361 175.667 183.625 147.167 183.625 113V98.875H190.688C194.588 98.875 197.75 95.7132 197.75 91.8125V77.6875C197.75 73.7868 194.588 70.625 190.688 70.625ZM84.75 63.5625V14.125C84.75 6.32403 78.426 0 70.625 0C62.824 0 56.5 6.32403 56.5 14.125V63.5625H84.75Z" fill="black"/>
</svg>
